# xmcd
# 
# Track frame offsets:
#     150
#     17105
#     39823
#     56724
# 
# Disc length: 1062
# 
# Revision: 3
# Processed by: cddbd v1.5.2PL0 Copyright (c) Steve Scherf et al.
# Submitted via: BonkEnc v1.0
# 
DISCID=28042404
DTITLE=DJ OZMA - 純情 〜スンジョン〜
DYEAR=2006
DGENRE=Pop
TTITLE0=純情 〜スンジョン〜
TTITLE1=朝がくる度
TTITLE2=純情 〜スンジョン〜(instrumental)
TTITLE3=朝がくる度(instrumental)
EXTD=YEAR: 1994
EXTT0=
EXTT1=
EXTT2=
EXTT3=
PLAYORDER=
